General

Format                                   : Matroska
Format version                           : Version 2
File size                                : 1.48 GiB
Duration                                 : 2h 18mn
Overall bit rate                         : 1 532 Kbps
Movie name                               : Casino Royale 1080p Dual Audio[Eng+Hin]~kishan(wall.e)

Video

ID                                       : 3
Format                                   : AVC
Format/Info                              : Advanced Video Codec
Format profile                           : High@L4.0
Format settings, CABAC                   : Yes
Format settings, ReFrames                : 4 frames
Muxing mode                              : Header stripping
Codec ID                                 : V_MPEG4/ISO/AVC
Duration                                 : 2h 18mn
Bit rate                                 : 1 299 Kbps
Width                                    : 1 920 pixels
Height                                   : 800 pixels
Display aspect ratio                     : 2.40:1
Frame rate                               : 25.000 fps
Original frame rate                      : 23.976 fps
Bit depth                                : 8 bits
Stream size                              : 1.28 GiB (87%)
Title                                    : Casino Royale 1080p Dual Audio[Eng+Hin]~kishan(wall.e)
Language                                 : Hindi
Default                                  : Yes
Forced                                   : No

Audio #1

ID                                       : 1
Format                                   : MPEG Audio
Format version                           : Version 1
Format profile                           : Layer 3
Codec ID                                 : A_MPEG/L3
Codec ID/Hint                            : MP3
Duration                                 : 2h 18mn
Bit rate                                 : 128 Kbps
Channel(s)                               : 2 channels
Sampling rate                            : 44.1 KHz
Stream size                              : 127 MiB (8%)
Title                                    : Hindi Audio ~Kishan(wall.e)
Language                                 : Hindi


Audio #2

ID                                       : 2
Format                                   : MPEG Audio
Format version                           : Version 2
Format profile                           : Layer 3
Mode                                     : Joint stereo
Mode extension                           : MS Stereo
Codec ID                                 : A_MPEG/L3
Codec ID/Hint                            : MP3
Duration                                 : 2h 18mn
Bit rate mode                            : Constant
Bit rate                                 : 48.0 Kbps
Channel(s)                               : 2 channels
Sampling rate                            : 22.05 KHz
Stream size                              : 47.5 MiB (3%)
Title                                    : English Audio ~Kishan(wall.e)
Language                                 : English

Screenshots
 
http://www3.picturepush.com/photo/a/8825071/img/casino-royal/1.png 
http://www5.picturepush.com/photo/a/8825078/img/casino-royal/2.png 
http://www5.picturepush.com/photo/a/8825088/img/casino-royal/3.png 
http://www3.picturepush.com/photo/a/8825091/img/casino-royal/4.png 
http://www3.picturepush.com/photo/a/8825106/img/casino-royal/5.png 
http://www1.picturepush.com/photo/a/8825114/img/casino-royal/6.png
